<svg width="466" height="285" viewBox="0 0 466 285" fill="none" xmlns="http://www.w3.org/2000/svg">
<path d="M0 47.5C0 37.5589 8.05887 29.5 18 29.5H121.582C126.773 29.5 131.711 31.7406 135.129 35.6469L145.371 47.3531C148.789 51.2594 153.727 53.5 158.918 53.5H447C456.941 53.5 465 61.5589 465 71.5V266.5C465 276.441 456.941 284.5 447 284.5H18C8.05889 284.5 0 276.441 0 266.5V47.5Z" fill="white" fill-opacity="0.05"/>
<path d="M0 47.5C0 37.5589 8.05887 29.5 18 29.5H121.582C126.773 29.5 131.711 31.7406 135.129 35.6469L145.371 47.3531C148.789 51.2594 153.727 53.5 158.918 53.5H447C456.941 53.5 465 61.5589 465 71.5V266.5C465 276.441 456.941 284.5 447 284.5H18C8.05889 284.5 0 276.441 0 266.5V47.5Z" fill="url(#paint0_radial_1327_5288)" fill-opacity="0.1"/>
<rect x="26.5" width="66" height="66" rx="33" fill="#FE4C00"/>
<g clip-path="url(#clip0_1327_5288)">
<g clip-path="url(#clip1_1327_5288)">
<path d="M72.625 52.3594C74.4372 52.3594 75.9062 50.8903 75.9062 49.0781C75.9062 47.2659 74.4372 45.7969 72.625 45.7969C70.8128 45.7969 69.3438 47.2659 69.3438 49.0781C69.3438 50.8903 70.8128 52.3594 72.625 52.3594Z" stroke="white" stroke-width="2.45" stroke-miterlimit="10" stroke-linecap="round" stroke-linejoin="round"/>
<path d="M75.5781 36.2812C77.3903 36.2812 78.8594 34.8122 78.8594 33C78.8594 31.1878 77.3903 29.7188 75.5781 29.7188C73.7659 29.7188 72.2969 31.1878 72.2969 33C72.2969 34.8122 73.7659 36.2812 75.5781 36.2812Z" stroke="white" stroke-width="2.45" stroke-miterlimit="10" stroke-linecap="round" stroke-linejoin="round"/>
<path d="M72.625 20.2031C74.4372 20.2031 75.9062 18.7341 75.9062 16.9219C75.9062 15.1097 74.4372 13.6406 72.625 13.6406C70.8128 13.6406 69.3438 15.1097 69.3438 16.9219C69.3438 18.7341 70.8128 20.2031 72.625 20.2031Z" stroke="white" stroke-width="2.45" stroke-miterlimit="10" stroke-linecap="round" stroke-linejoin="round"/>
<path d="M59.8281 42.8439H66.3906L70.3048 46.7581M59.8281 23.1564H66.3906L70.3048 19.2422M72.2969 33.0001H56.5469" stroke="white" stroke-width="2.45" stroke-miterlimit="10" stroke-linecap="round" stroke-linejoin="round"/>
<path d="M50.9081 44.8944C50.3268 45.7026 49.9844 46.6941 49.9844 47.7656C49.9844 50.4839 52.188 52.3594 54.9062 52.3594C57.6245 52.3594 59.8281 50.1558 59.8281 47.4375V18.5625C59.8281 15.8442 57.6245 13.6406 54.9062 13.6406C52.188 13.6406 49.9844 15.5161 49.9844 18.2344C49.9844 19.3059 50.3268 20.2974 50.9081 21.1056" fill="white"/>
<path d="M50.9081 44.8944C50.3268 45.7026 49.9844 46.6941 49.9844 47.7656C49.9844 50.4839 52.188 52.3594 54.9062 52.3594C57.6245 52.3594 59.8281 50.1558 59.8281 47.4375V18.5625C59.8281 15.8442 57.6245 13.6406 54.9062 13.6406C52.188 13.6406 49.9844 15.5161 49.9844 18.2344C49.9844 19.3059 50.3268 20.2974 50.9081 21.1056" stroke="white" stroke-width="2.45" stroke-miterlimit="10" stroke-linecap="round" stroke-linejoin="round"/>
<path d="M52.15 16.5996C52.0401 16.5956 51.9301 16.5937 51.8202 16.5938C47.5199 16.5938 44.0338 19.5317 44.0338 23.1563C44.0331 23.7777 44.1372 24.3961 44.3429 24.9929C41.9147 25.5895 40.1406 27.4795 40.1406 29.7188C40.1409 31.5308 41.8838 33 44.0338 33C41.884 33 40.1409 34.4687 40.1406 36.2806C40.1406 38.5196 41.9147 40.4102 44.3429 41.0068C44.1372 41.6037 44.0331 42.2222 44.0338 42.8438C44.0338 46.4681 47.5199 49.4063 51.8202 49.4063C51.9306 49.4063 52.0407 49.4043 52.15 49.4004" fill="white"/>
<path d="M52.15 16.5996C52.0401 16.5956 51.9301 16.5937 51.8202 16.5938C47.5199 16.5938 44.0338 19.5317 44.0338 23.1563C44.0331 23.7777 44.1372 24.3961 44.3429 24.9929C41.9147 25.5895 40.1406 27.4795 40.1406 29.7188C40.1409 31.5308 41.8838 33 44.0338 33M44.0338 33H46.7031M44.0338 33C41.884 33 40.1409 34.4687 40.1406 36.2806C40.1406 38.5196 41.9147 40.4102 44.3429 41.0068C44.1372 41.6037 44.0331 42.2222 44.0338 42.8438C44.0338 46.4681 47.5199 49.4063 51.8202 49.4063C51.9306 49.4063 52.0407 49.4043 52.15 49.4004" stroke="white" stroke-width="2.45" stroke-miterlimit="10" stroke-linecap="round" stroke-linejoin="round"/>
</g>
</g>
<defs>
<radialGradient id="paint0_radial_1327_5288" cx="0" cy="0" r="1" gradientUnits="userSpaceOnUse" gradientTransform="translate(0 29.5) rotate(90) scale(136.063 465)">
<stop stop-color="white"/>
<stop offset="1" stop-color="white" stop-opacity="0"/>
</radialGradient>
<clipPath id="clip0_1327_5288">
<rect width="42" height="42" fill="white" transform="translate(38.5 12)"/>
</clipPath>
<clipPath id="clip1_1327_5288">
<rect width="42" height="42" fill="white" transform="translate(38.5 12)"/>
</clipPath>
</defs>
</svg>
