<svg width="466" height="285" viewBox="0 0 466 285" fill="none" xmlns="http://www.w3.org/2000/svg">
<path d="M0 47.5C0 37.5589 8.05887 29.5 18 29.5H121.582C126.773 29.5 131.711 31.7406 135.129 35.6469L145.371 47.3531C148.789 51.2594 153.727 53.5 158.918 53.5H447C456.941 53.5 465 61.5589 465 71.5V266.5C465 276.441 456.941 284.5 447 284.5H18C8.05889 284.5 0 276.441 0 266.5V47.5Z" fill="white" fill-opacity="0.05"/>
<path d="M0 47.5C0 37.5589 8.05887 29.5 18 29.5H121.582C126.773 29.5 131.711 31.7406 135.129 35.6469L145.371 47.3531C148.789 51.2594 153.727 53.5 158.918 53.5H447C456.941 53.5 465 61.5589 465 71.5V266.5C465 276.441 456.941 284.5 447 284.5H18C8.05889 284.5 0 276.441 0 266.5V47.5Z" fill="url(#paint0_radial_1327_5363)" fill-opacity="0.1"/>
<rect x="26.5" width="66" height="66" rx="33" fill="#FE4C00"/>
<path d="M76.205 29.1811H75.2395C75.1596 26.0348 74.1331 22.9856 72.2941 20.4314C70.4551 17.8772 67.8889 15.9367 64.9304 14.8629H72.9319C73.0481 15.3128 73.3243 15.7049 73.7089 15.9657C74.0935 16.2265 74.56 16.3381 75.0209 16.2795C75.4819 16.221 75.9057 15.9963 76.2128 15.6477C76.52 15.299 76.6895 14.8503 76.6895 14.3857C76.6895 13.921 76.52 13.4723 76.2128 13.1236C75.9057 12.775 75.4819 12.5503 75.0209 12.4918C74.56 12.4332 74.0935 12.5448 73.7089 12.8056C73.3243 13.0664 73.0481 13.4585 72.9319 13.9084H61.4096V12.9538C61.4096 12.8273 61.3593 12.7059 61.2698 12.6164C61.1803 12.5269 61.0589 12.4766 60.9323 12.4766H58.0687C57.9421 12.4766 57.8207 12.5269 57.7312 12.6164C57.6417 12.7059 57.5914 12.8273 57.5914 12.9538V13.9084H46.0691C45.9529 13.4585 45.6767 13.0664 45.2921 12.8056C44.9075 12.5448 44.441 12.4332 43.9801 12.4918C43.5191 12.5503 43.0953 12.775 42.7882 13.1236C42.481 13.4723 42.3115 13.921 42.3115 14.3857C42.3115 14.8503 42.481 15.299 42.7882 15.6477C43.0953 15.9963 43.5191 16.221 43.9801 16.2795C44.441 16.3381 44.9075 16.2265 45.2921 15.9657C45.6767 15.7049 45.9529 15.3128 46.0691 14.8629H54.0706C51.112 15.9367 48.5459 17.8772 46.7069 20.4314C44.8678 22.9856 43.8414 26.0348 43.7615 29.1811H42.7959C42.6694 29.1811 42.548 29.2314 42.4585 29.3209C42.369 29.4104 42.3187 29.5318 42.3187 29.6584V32.522C42.3187 32.6486 42.369 32.77 42.4585 32.8595C42.548 32.949 42.6694 32.9993 42.7959 32.9993H45.6596C45.7862 32.9993 45.9076 32.949 45.9971 32.8595C46.0866 32.77 46.1369 32.6486 46.1369 32.522V29.6584C46.1369 29.5318 46.0866 29.4104 45.9971 29.3209C45.9076 29.2314 45.7862 29.1811 45.6596 29.1811H44.716C44.8118 25.6671 46.163 22.3036 48.525 19.7C50.8869 17.0964 54.1033 15.425 57.5914 14.9885V15.8175C57.5914 15.9441 57.6417 16.0655 57.7312 16.155C57.8207 16.2445 57.9421 16.2947 58.0687 16.2947H60.9323C61.0589 16.2947 61.1803 16.2445 61.2698 16.155C61.3593 16.0655 61.4096 15.9441 61.4096 15.8175V14.9885C64.8977 15.425 68.1141 17.0964 70.476 19.7C72.8379 22.3036 74.1892 25.6671 74.285 29.1811H73.3414C73.2148 29.1811 73.0934 29.2314 73.0039 29.3209C72.9144 29.4104 72.8641 29.5318 72.8641 29.6584V32.522C72.8641 32.6486 72.9144 32.77 73.0039 32.8595C73.0934 32.949 73.2148 32.9993 73.3414 32.9993H76.205C76.3316 32.9993 76.453 32.949 76.5425 32.8595C76.632 32.77 76.6823 32.6486 76.6823 32.522V29.6584C76.6823 29.5318 76.632 29.4104 76.5425 29.3209C76.453 29.2314 76.3316 29.1811 76.205 29.1811Z" fill="white"/>
<path d="M60.8824 18.4675C60.8344 18.3712 60.7553 18.2939 60.6579 18.2483C60.5604 18.2026 60.4504 18.1912 60.3457 18.2159C60.241 18.2406 60.1476 18.2999 60.0809 18.3844C60.0141 18.4688 59.9779 18.5732 59.978 18.6808V34.1493C59.978 34.2416 60.0049 34.3321 60.0553 34.4095C60.1057 34.4869 60.1775 34.5481 60.262 34.5855C60.6644 34.7605 60.9942 35.0687 61.196 35.4584C61.3978 35.8481 61.4592 36.2954 61.3698 36.725C61.2804 37.1546 61.0458 37.5403 60.7054 37.8172C60.365 38.0941 59.9395 38.2453 59.5007 38.2453C59.0619 38.2453 58.6365 38.0941 58.296 37.8172C57.9556 37.5403 57.721 37.1546 57.6316 36.725C57.5423 36.2954 57.6036 35.8481 57.8054 35.4584C58.0072 35.0687 58.337 34.7605 58.7395 34.5855C58.8239 34.5481 58.8957 34.4869 58.9462 34.4095C58.9966 34.3321 59.0234 34.2416 59.0234 34.1493V18.6808C59.0235 18.5732 58.9873 18.4688 58.9205 18.3844C58.8538 18.2999 58.7605 18.2406 58.6557 18.2159C58.551 18.1912 58.441 18.2026 58.3436 18.2483C58.2461 18.2939 58.167 18.3712 58.119 18.4675L49.0508 36.6039C49.0177 36.6701 49.0005 36.7432 49.0005 36.8172C49.0005 36.8913 49.0177 36.9643 49.0508 37.0305L52.5244 43.9763H66.478L69.9506 37.0305C69.9837 36.9643 70.0009 36.8913 70.0009 36.8172C70.0009 36.7432 69.9837 36.6701 69.9506 36.6039L60.8824 18.4675Z" fill="white"/>
<path d="M67.6137 44.9316H51.3865C51.1229 44.9316 50.9092 45.1453 50.9092 45.4089V48.2725C50.9092 48.5361 51.1229 48.7498 51.3865 48.7498H67.6137C67.8773 48.7498 68.091 48.5361 68.091 48.2725V45.4089C68.091 45.1453 67.8773 44.9316 67.6137 44.9316Z" fill="white"/>
<path d="M52.3418 53.044C52.3418 53.1706 52.3921 53.292 52.4816 53.3815C52.5711 53.471 52.6925 53.5213 52.8191 53.5213H66.1827C66.3093 53.5213 66.4307 53.471 66.5202 53.3815C66.6097 53.292 66.66 53.1706 66.66 53.044V49.7031H52.3418V53.044Z" fill="white"/>
<defs>
<radialGradient id="paint0_radial_1327_5363" cx="0" cy="0" r="1" gradientUnits="userSpaceOnUse" gradientTransform="translate(0 29.5) rotate(90) scale(136.063 465)">
<stop stop-color="white"/>
<stop offset="1" stop-color="white" stop-opacity="0"/>
</radialGradient>
</defs>
</svg>
