<svg width="466" height="285" viewBox="0 0 466 285" fill="none" xmlns="http://www.w3.org/2000/svg">
<path d="M0 47.5C0 37.5589 8.05887 29.5 18 29.5H121.582C126.773 29.5 131.711 31.7406 135.129 35.6469L145.371 47.3531C148.789 51.2594 153.727 53.5 158.918 53.5H447C456.941 53.5 465 61.5589 465 71.5V266.5C465 276.441 456.941 284.5 447 284.5H18C8.05889 284.5 0 276.441 0 266.5V47.5Z" fill="white" fill-opacity="0.05"/>
<path d="M0 47.5C0 37.5589 8.05887 29.5 18 29.5H121.582C126.773 29.5 131.711 31.7406 135.129 35.6469L145.371 47.3531C148.789 51.2594 153.727 53.5 158.918 53.5H447C456.941 53.5 465 61.5589 465 71.5V266.5C465 276.441 456.941 284.5 447 284.5H18C8.05889 284.5 0 276.441 0 266.5V47.5Z" fill="url(#paint0_radial_1327_5289)" fill-opacity="0.1"/>
<rect x="26.5" width="66" height="66" rx="33" fill="#FE4C00"/>
<g clip-path="url(#clip0_1327_5289)">
<path fill-rule="evenodd" clip-rule="evenodd" d="M49.2437 51.301H70.6869C70.9128 51.301 71.0971 51.1168 71.0971 50.8909V49.5846C71.0971 48.6406 70.1304 47.8683 68.9489 47.8683H65.1145V43.8661H73.83C75.2155 43.8661 76.3491 42.7325 76.3491 41.347V28.3015L75.5027 27.9257C75.2541 28.0462 74.9986 28.1521 74.7376 28.2429L74.2425 29.5291V39.6228H54.7151C54.7151 44.8347 54.8161 43.1467 54.8161 47.8684H50.9817C49.8002 47.8684 48.8335 48.6407 48.8335 49.5847V50.891C48.8337 50.9997 48.877 51.1039 48.9539 51.1807C49.0308 51.2576 49.135 51.3008 49.2437 51.301ZM63.5869 35.0858C63.454 35.1951 63.2834 35.2477 63.1121 35.232C62.9407 35.2163 62.7825 35.1336 62.6718 35.0019C62.561 34.8702 62.5067 34.7002 62.5206 34.5287C62.5345 34.3572 62.6155 34.1981 62.7461 34.086L65.6799 31.6136L62.7461 29.1413C62.6155 29.0292 62.5345 28.8701 62.5206 28.6986C62.5067 28.5271 62.561 28.357 62.6718 28.2253C62.7825 28.0937 62.9407 28.011 63.1121 27.9953C63.2834 27.9796 63.454 28.0321 63.5869 28.1415L67.107 31.1078C67.4212 31.3656 67.428 31.8493 67.1139 32.1134L63.5869 35.0858ZM57.1846 34.086C57.3151 34.1982 57.3961 34.3572 57.41 34.5287C57.4239 34.7002 57.3696 34.8703 57.2589 35.002C57.1481 35.1337 56.9899 35.2163 56.8186 35.232C56.6472 35.2477 56.4766 35.1952 56.3438 35.0858L52.8167 32.1137C52.5027 31.8495 52.5095 31.3659 52.8236 31.1081L56.3438 28.1418C56.4766 28.0324 56.6472 27.9799 56.8186 27.9956C56.9899 28.0113 57.1481 28.094 57.2589 28.2257C57.3696 28.3574 57.4239 28.5274 57.41 28.6989C57.3961 28.8704 57.3151 29.0295 57.1846 29.1416L54.2507 31.614L57.1846 34.086ZM59.5162 35.8222C59.4949 35.9063 59.457 35.9854 59.4049 36.0548C59.3528 36.1242 59.2874 36.1826 59.2126 36.2265C59.1377 36.2704 59.0549 36.2991 58.9689 36.3107C58.8829 36.3224 58.7954 36.3169 58.7116 36.2945C58.6277 36.2721 58.5492 36.2332 58.4804 36.1802C58.4117 36.1272 58.3542 36.0611 58.3113 35.9856C58.2683 35.9102 58.2408 35.827 58.2302 35.7409C58.2197 35.6547 58.2263 35.5673 58.2498 35.4838L60.4145 27.4053C60.4358 27.3211 60.4736 27.242 60.5257 27.1726C60.5778 27.1032 60.6432 27.0449 60.718 27.0009C60.7929 26.957 60.8757 26.9283 60.9617 26.9167C61.0477 26.905 61.1352 26.9105 61.2191 26.9329C61.3029 26.9553 61.3815 26.9942 61.4502 27.0472C61.5189 27.1002 61.5764 27.1664 61.6194 27.2418C61.6623 27.3172 61.6899 27.4004 61.7004 27.4865C61.711 27.5727 61.7043 27.6601 61.6808 27.7436L59.5162 35.8222ZM45.2545 35.3203L45.688 34.1942H47.5271L47.9606 35.3203C48.5604 35.4632 49.1337 35.7008 49.6587 36.0243L50.7622 35.5342L52.0627 36.8347L51.5727 37.9381C51.8962 38.4631 52.1339 39.0364 52.2767 39.6364L53.4027 40.0697V41.909L52.2769 42.3422C52.134 42.9423 51.8963 43.5157 51.5728 44.0409L52.0628 45.144L50.7623 46.4445L49.6589 45.9544C49.1339 46.2779 48.5606 46.5155 47.9607 46.6584L47.5273 47.7844H45.688L45.2546 46.6586C44.6546 46.5158 44.0812 46.2781 43.5561 45.9546L42.4529 46.4445L41.1524 45.1439L41.6425 44.0405C41.319 43.5154 41.0813 42.9422 40.9385 42.3423L39.8125 41.9089V40.0697L40.9383 39.6364C41.0812 39.0363 41.3189 38.4629 41.6424 37.9377L41.1525 36.8347L42.453 35.5341L43.5564 36.0242C44.0815 35.7008 44.6547 35.4632 45.2545 35.3203ZM46.6076 37.5014C48.5341 37.5014 50.0954 39.0628 50.0954 40.9893C50.0954 42.9158 48.5341 44.4772 46.6076 44.4772C44.6811 44.4772 43.1197 42.9158 43.1197 40.9893C43.1197 39.0628 44.6811 37.5014 46.6076 37.5014ZM71.0394 15.8292L71.4729 14.7031H73.312L73.7455 15.8292C74.3453 15.972 74.9186 16.2097 75.4436 16.5332L76.5471 16.0431L77.8476 17.3436L77.3576 18.4469C77.6811 18.972 77.9188 19.5453 78.0616 20.1452L79.1875 20.5785V22.4178L78.0617 22.851C77.9188 23.4511 77.6811 24.0244 77.3576 24.5496L77.8476 25.6527L76.5471 26.9532L75.4436 26.4631C74.9186 26.7866 74.3453 27.0243 73.7455 27.1671L73.312 28.2932H71.4728L71.0395 27.1674C70.4395 27.0245 69.8661 26.7868 69.341 26.4633L68.2379 26.9532L66.9374 25.6527L67.4274 24.5492C67.104 24.0242 66.8663 23.4509 66.7234 22.851L65.5974 22.4176V20.5784L66.7232 20.1451C66.8661 19.5451 67.1038 18.9717 67.4273 18.4465L66.9373 17.3434L68.2378 16.0429L69.3412 16.5329C69.8663 16.2096 70.4396 15.9721 71.0394 15.8292ZM72.3924 18.0102C70.4659 18.0102 68.9046 19.5717 68.9046 21.4981C68.9046 23.4246 70.4659 24.986 72.3924 24.986C74.3189 24.986 75.8803 23.4246 75.8803 21.4981C75.8803 19.5717 74.3189 18.0102 72.3924 18.0102ZM45.688 32.8817H44.7869L44.2623 34.2446C44.0307 34.3252 43.8035 34.4176 43.5815 34.5216V24.0172C43.5815 22.6317 44.7151 21.4982 46.1005 21.4982H64.2849V23.3189L65.0273 23.6047H46.0374C45.9448 23.6049 45.8561 23.6418 45.7907 23.7073C45.7252 23.7728 45.6883 23.8615 45.6881 23.954L45.688 32.8817Z" fill="white"/>
</g>
<defs>
<radialGradient id="paint0_radial_1327_5289" cx="0" cy="0" r="1" gradientUnits="userSpaceOnUse" gradientTransform="translate(0 29.5) rotate(90) scale(136.063 465)">
<stop stop-color="white"/>
<stop offset="1" stop-color="white" stop-opacity="0"/>
</radialGradient>
<clipPath id="clip0_1327_5289">
<rect width="42" height="42" fill="white" transform="translate(38.5 12)"/>
</clipPath>
</defs>
</svg>
