<svg width="466" height="285" viewBox="0 0 466 285" fill="none" xmlns="http://www.w3.org/2000/svg">
<path d="M0 47.5C0 37.5589 8.05887 29.5 18 29.5H121.582C126.773 29.5 131.711 31.7406 135.129 35.6469L145.371 47.3531C148.789 51.2594 153.727 53.5 158.918 53.5H447C456.941 53.5 465 61.5589 465 71.5V266.5C465 276.441 456.941 284.5 447 284.5H18C8.05889 284.5 0 276.441 0 266.5V47.5Z" fill="white" fill-opacity="0.05"/>
<path d="M0 47.5C0 37.5589 8.05887 29.5 18 29.5H121.582C126.773 29.5 131.711 31.7406 135.129 35.6469L145.371 47.3531C148.789 51.2594 153.727 53.5 158.918 53.5H447C456.941 53.5 465 61.5589 465 71.5V266.5C465 276.441 456.941 284.5 447 284.5H18C8.05889 284.5 0 276.441 0 266.5V47.5Z" fill="url(#paint0_radial_1327_5364)" fill-opacity="0.1"/>
<rect x="26.5" width="66" height="66" rx="33" fill="#FE4C00"/>
<g clip-path="url(#clip0_1327_5364)">
<path d="M51.6252 21.1875V20.5312C51.6252 20.3572 51.6943 20.1903 51.8174 20.0672C51.9405 19.9441 52.1074 19.875 52.2815 19.875H54.9065C55.0805 19.875 55.2474 19.9441 55.3705 20.0672C55.4936 20.1903 55.5627 20.3572 55.5627 20.5312V21.1875H63.4377V20.5312C63.4377 20.3572 63.5068 20.1903 63.6299 20.0672C63.753 19.9441 63.9199 19.875 64.094 19.875H66.719C66.893 19.875 67.0599 19.9441 67.183 20.0672C67.3061 20.1903 67.3752 20.3572 67.3752 20.5312V21.1875C68.0714 21.1875 68.7391 20.9109 69.2314 20.4187C69.7236 19.9264 70.0002 19.2587 70.0002 18.5625V17.25C70.0002 16.7279 69.7928 16.2271 69.4236 15.8579C69.0544 15.4887 68.5536 15.2812 68.0315 15.2812H63.4377V13.9688C63.4377 13.4466 63.2303 12.9458 62.8611 12.5766C62.4919 12.2074 61.9911 12 61.469 12H57.5315C57.0093 12 56.5086 12.2074 56.1393 12.5766C55.7701 12.9458 55.5627 13.4466 55.5627 13.9688V15.2812H50.969C50.4468 15.2812 49.9461 15.4887 49.5768 15.8579C49.2076 16.2271 49.0002 16.7279 49.0002 17.25V18.5625C49.0002 19.2587 49.2768 19.9264 49.7691 20.4187C50.2613 20.9109 50.929 21.1875 51.6252 21.1875ZM56.8752 13.9688C56.8752 13.7947 56.9443 13.6278 57.0674 13.5047C57.1905 13.3816 57.3574 13.3125 57.5315 13.3125H61.469C61.643 13.3125 61.8099 13.3816 61.933 13.5047C62.0561 13.6278 62.1252 13.7947 62.1252 13.9688V15.2812H56.8752V13.9688ZM64.7502 21.1875H66.0627V22.5H64.7502V21.1875ZM52.9377 21.1875H54.2502V22.5H52.9377V21.1875ZM53.7252 43.5249C53.4456 43.1919 53.0453 42.9835 52.6122 42.9455C52.179 42.9075 51.7485 43.043 51.4152 43.3222L47.8938 46.2753C47.5603 46.5544 47.3513 46.9545 47.3126 47.3876C47.274 47.8208 47.4089 48.2516 47.6877 48.5853C47.9673 48.9183 48.3676 49.1267 48.8007 49.1647C49.2339 49.2027 49.6644 49.0673 49.9977 48.7881L53.5185 45.8349C53.8521 45.5559 54.0612 45.1559 54.1 44.7227C54.1387 44.2896 54.0039 43.8587 53.7252 43.5249ZM61.6383 48.8747C61.3587 48.5417 60.9584 48.3333 60.5252 48.2953C60.0921 48.2572 59.6616 48.3927 59.3283 48.6719L56.8129 50.7844C56.4797 51.064 56.2711 51.4644 56.2331 51.8977C56.1951 52.331 56.3307 52.7617 56.6101 53.095C56.8897 53.4282 57.2901 53.6368 57.7234 53.6748C58.1567 53.7128 58.5874 53.5772 58.9207 53.2978L61.4355 51.1886C61.6009 51.0501 61.7375 50.8804 61.8372 50.6891C61.937 50.4978 61.998 50.2887 62.0169 50.0737C62.0357 49.8588 62.012 49.6422 61.947 49.4365C61.882 49.2307 61.7771 49.0398 61.6383 48.8747ZM51.0707 41.8955C51.4039 41.6159 51.6124 41.2154 51.6504 40.7821C51.6885 40.3488 51.5529 39.9182 51.2735 39.5848C50.9938 39.2517 50.5933 39.0433 50.16 39.0054C49.7267 38.9675 49.2961 39.1032 48.9628 39.3827L45.9441 41.9132C45.611 42.1929 45.4025 42.5934 45.3646 43.0267C45.3267 43.46 45.4624 43.8906 45.7419 44.2238C46.0215 44.5568 46.4218 44.7652 46.855 44.8033C47.2881 44.8413 47.7186 44.7058 48.0519 44.4266L51.0707 41.8955ZM57.1777 46.6211C56.8981 46.288 56.4975 46.0796 56.0643 46.0417C55.631 46.0038 55.2004 46.1395 54.8671 46.419L52.3517 48.5275C52.0301 48.8105 51.832 49.2081 51.7996 49.6352C51.7672 50.0623 51.9032 50.4852 52.1785 50.8134C52.4537 51.1416 52.8464 51.3492 53.2727 51.3917C53.6989 51.4342 54.1249 51.3083 54.4596 51.041L56.975 48.9324C57.3083 48.6528 57.517 48.2522 57.555 47.8188C57.5931 47.3853 57.4573 46.9545 57.1777 46.6211ZM62.2794 52.1914L60.3428 53.8143C60.6333 53.9683 60.9636 54.0308 61.2903 53.9937C61.617 53.9565 61.9248 53.8214 62.1733 53.6061C62.4217 53.3908 62.5993 53.1053 62.6825 52.7872C62.7658 52.4691 62.7508 52.1333 62.6397 51.8239C62.5305 51.9566 62.41 52.0796 62.2794 52.1914Z" fill="white"/>
<path d="M41.0237 25.5144L38.5116 39.7317C38.4486 40.0886 38.6868 40.4291 39.0437 40.4921L40.9824 40.8347C41.3393 40.8977 41.6798 40.6595 41.7428 40.3026L44.2549 26.0853C44.3179 25.7284 44.0797 25.388 43.7228 25.3249L41.7841 24.9823C41.4272 24.9193 41.0867 25.1575 41.0237 25.5144Z" fill="white"/>
<path d="M72.8875 41.6786L66.4024 37.3861C65.0956 37.6606 63.7383 37.5672 62.4813 37.1163C60.8939 36.5524 59.5731 35.4178 58.7762 33.9335L56.6716 34.3614L55.8486 35.6083C55.3676 36.3331 54.6188 36.8376 53.7664 37.0111C52.9139 37.1845 52.0275 37.0128 51.3015 36.5336C50.7215 36.1488 50.3178 35.5496 50.179 34.8675C50.0403 34.1855 50.1777 33.4762 50.5612 32.8953L52.8817 29.391C53.2354 28.8549 53.7391 28.4349 54.3301 28.1835L57.8226 26.6944C56.8191 26.2717 55.7181 26.1354 54.6418 26.3007L47.2327 27.4334L45.4005 27.1105L43.0938 40.1758L43.6358 40.2709C43.8605 40.7703 44.1326 41.2469 44.4483 41.6943C44.6173 41.396 44.8371 41.1295 45.0979 40.9068L48.1167 38.375C48.6135 37.955 49.2354 37.7114 49.8853 37.6822C50.5352 37.6531 51.1765 37.8401 51.7088 38.214C52.2412 38.588 52.6347 39.1277 52.8278 39.749C53.0208 40.3702 53.0027 41.0379 52.7761 41.6478C53.5354 41.7255 54.2344 42.0963 54.7246 42.6813C55.2148 43.2663 55.4575 44.0195 55.4011 44.7807C55.8031 44.7059 56.2163 44.7162 56.6141 44.8109C57.0119 44.9056 57.3855 45.0826 57.7107 45.3306C58.0358 45.5785 58.3054 45.8919 58.5021 46.2504C58.6987 46.609 58.818 47.0048 58.8523 47.4123C59.3242 47.1201 59.8693 46.9677 60.4243 46.9729C60.9793 46.9781 61.5215 47.1406 61.9878 47.4416C62.4542 47.7426 62.8256 48.1696 63.059 48.6732C63.2923 49.1768 63.3781 49.7363 63.3062 50.2866L63.8221 50.6272C64.1849 50.863 64.6261 50.9458 65.0498 50.8578C65.4734 50.7698 65.8451 50.5179 66.084 50.1572C66.3228 49.7964 66.4095 49.3558 66.3251 48.9315C66.2407 48.5071 65.992 48.1333 65.6333 47.8913L61.5285 45.1744C61.4516 45.1294 61.3848 45.0691 61.332 44.9973C61.2792 44.9256 61.2415 44.8438 61.2213 44.757C61.2012 44.6703 61.1989 44.5803 61.2146 44.4926C61.2303 44.4049 61.2637 44.3213 61.3128 44.247C61.3619 44.1726 61.4256 44.109 61.5 44.0601C61.5744 44.0111 61.6581 43.9778 61.7458 43.9623C61.8335 43.9467 61.9235 43.9491 62.0102 43.9695C62.097 43.9898 62.1787 44.0276 62.2503 44.0805L67.4492 47.5212C67.6288 47.6423 67.8306 47.7267 68.043 47.7694C68.2553 47.8121 68.4741 47.8124 68.6865 47.7701C68.899 47.7279 69.101 47.6439 69.2809 47.5232C69.4608 47.4025 69.6149 47.2473 69.7345 47.0667C69.8541 46.886 69.9367 46.6835 69.9776 46.4708C70.0185 46.258 70.0169 46.0393 69.9728 45.8272C69.9287 45.6151 69.8431 45.4138 69.7208 45.235C69.5985 45.0562 69.4421 44.9033 69.2604 44.7853L64.0609 41.3439C63.9849 41.2984 63.9188 41.238 63.8667 41.1663C63.8147 41.0946 63.7777 41.0131 63.7579 40.9267C63.7382 40.8403 63.7362 40.7508 63.752 40.6636C63.7678 40.5765 63.8011 40.4934 63.8499 40.4194C63.8987 40.3454 63.9619 40.2821 64.0359 40.2332C64.1098 40.1843 64.1928 40.151 64.28 40.1351C64.3672 40.1192 64.4567 40.1211 64.5431 40.1407C64.6295 40.1604 64.7111 40.1973 64.7828 40.2493L71.0756 44.4152C71.4385 44.6553 71.8819 44.7415 72.3084 44.6548C72.7348 44.568 73.1093 44.3154 73.3495 43.9525C73.5897 43.5896 73.6759 43.1462 73.5891 42.7197C73.5023 42.2933 73.2497 41.9188 72.8868 41.6786H72.8875Z" fill="white"/>
<path d="M77.2246 24.9671L75.2859 25.3096C74.929 25.3727 74.6908 25.7132 74.7538 26.0701L77.2658 40.2874C77.3289 40.6443 77.6694 40.8825 78.0263 40.8194L79.965 40.4769C80.3219 40.4138 80.5601 40.0734 80.497 39.7164L77.985 25.4992C77.922 25.1422 77.5815 24.904 77.2246 24.9671Z" fill="white"/>
<path d="M71.7666 27.4306L64.3563 26.2979C63.2699 26.132 62.1588 26.2724 61.1478 26.7035L54.8452 29.3915C54.4913 29.5423 54.189 29.7932 53.9757 30.1134L51.6578 33.6171C51.5626 33.7608 51.4967 33.9219 51.4638 34.0911C51.4309 34.2603 51.4317 34.4344 51.4661 34.6033C51.5004 34.7722 51.5677 34.9327 51.6641 35.0756C51.7606 35.2186 51.8842 35.3411 52.0279 35.4362C52.4633 35.7243 52.9953 35.8276 53.5069 35.7235C54.0185 35.6194 54.4678 35.3164 54.756 34.881L55.8795 33.184L59.0137 32.5461C59.1569 32.5152 59.3064 32.5338 59.4376 32.5991C59.5687 32.6643 59.6738 32.7722 59.7356 32.905C60.0336 33.5946 60.471 34.2151 61.0203 34.7275C61.5696 35.2399 62.219 35.6331 62.9276 35.8825C64.1238 36.3112 65.4264 36.3427 66.642 35.9724C67.1697 35.8109 67.6721 35.5758 68.1343 35.2741V35.2702L68.6875 34.9151C68.7598 34.8682 68.8406 34.8359 68.9253 34.8202C69.01 34.8044 69.097 34.8055 69.1814 34.8234C69.2657 34.8413 69.3456 34.8756 69.4167 34.9244C69.4877 34.9732 69.5485 35.0355 69.5954 35.1077C69.6424 35.18 69.6747 35.2608 69.6904 35.3456C69.7061 35.4303 69.705 35.5173 69.6872 35.6016C69.6693 35.6859 69.635 35.7659 69.5862 35.8369C69.5374 35.908 69.4751 35.9687 69.4028 36.0157L68.8522 36.3733C68.5731 36.5545 68.2819 36.7163 67.9807 36.8576L73.612 40.5851C74.0184 40.8579 74.3495 41.2288 74.5747 41.6634C74.8799 41.226 75.1435 40.7611 75.3622 40.2747L75.9062 40.1763L73.5995 27.1077L71.7666 27.4306ZM55.5349 24.9178C56.5078 24.9167 57.4707 25.1132 58.3653 25.4953L59.5 25.979L60.6347 25.4953C61.5293 25.1132 62.4922 24.9167 63.4651 24.9178C63.8302 24.9181 64.1948 24.9457 64.5557 25.0005L70 25.8326V21.4902C69.2803 22.1405 68.3449 22.5006 67.375 22.5009V23.1571C67.375 23.3312 67.3059 23.4981 67.1828 23.6211C67.0597 23.7442 66.8928 23.8134 66.7188 23.8134H64.0938C63.9197 23.8134 63.7528 23.7442 63.6297 23.6211C63.5066 23.4981 63.4375 23.3312 63.4375 23.1571V22.5009H55.5625V23.1571C55.5625 23.3312 55.4934 23.4981 55.3703 23.6211C55.2472 23.7442 55.0803 23.8134 54.9062 23.8134H52.2812C52.1072 23.8134 51.9403 23.7442 51.8172 23.6211C51.6941 23.4981 51.625 23.3312 51.625 23.1571V22.5009C50.6551 22.5006 49.7197 22.1405 49 21.4902V25.8326L54.4469 25.0012C54.8069 24.946 55.1707 24.9181 55.5349 24.9178Z" fill="white"/>
</g>
<defs>
<radialGradient id="paint0_radial_1327_5364" cx="0" cy="0" r="1" gradientUnits="userSpaceOnUse" gradientTransform="translate(0 29.5) rotate(90) scale(136.063 465)">
<stop stop-color="white"/>
<stop offset="1" stop-color="white" stop-opacity="0"/>
</radialGradient>
<clipPath id="clip0_1327_5364">
<rect width="42" height="42" fill="white" transform="translate(38.5 12)"/>
</clipPath>
</defs>
</svg>
