<svg width="466" height="285" viewBox="0 0 466 285" fill="none" xmlns="http://www.w3.org/2000/svg">
<path d="M0 47.5C0 37.5589 8.05887 29.5 18 29.5H121.582C126.773 29.5 131.711 31.7406 135.129 35.6469L145.371 47.3531C148.789 51.2594 153.727 53.5 158.918 53.5H447C456.941 53.5 465 61.5589 465 71.5V266.5C465 276.441 456.941 284.5 447 284.5H18C8.05889 284.5 0 276.441 0 266.5V47.5Z" fill="white" fill-opacity="0.05"/>
<path d="M0 47.5C0 37.5589 8.05887 29.5 18 29.5H121.582C126.773 29.5 131.711 31.7406 135.129 35.6469L145.371 47.3531C148.789 51.2594 153.727 53.5 158.918 53.5H447C456.941 53.5 465 61.5589 465 71.5V266.5C465 276.441 456.941 284.5 447 284.5H18C8.05889 284.5 0 276.441 0 266.5V47.5Z" fill="url(#paint0_radial_1327_5362)" fill-opacity="0.1"/>
<rect x="26.5" width="66" height="66" rx="33" fill="#FE4C00"/>
<g clip-path="url(#clip0_1327_5362)">
<path d="M79.2898 27.7648C79.1634 27.7952 79.0542 27.8743 78.9859 27.985C78.9177 28.0956 78.896 28.2288 78.9256 28.3554C79.2844 29.8781 79.466 31.4372 79.467 33.0016C79.4607 38.2951 77.355 43.37 73.612 47.113C69.8689 50.8561 64.7941 52.9617 59.5006 52.968C55.1529 52.9833 50.9219 51.5622 47.465 48.9255C47.9291 48.2335 48.1146 47.3915 47.9842 46.5685C47.8538 45.7454 47.4171 45.0021 46.7618 44.4874C46.1064 43.9727 45.2807 43.7247 44.4502 43.7931C43.6197 43.8614 42.8457 44.2412 42.2834 44.8562C41.721 45.4711 41.4119 46.2759 41.4178 47.1092C41.4238 47.9425 41.7445 48.7428 42.3157 49.3496C42.8868 49.9564 43.6661 50.325 44.4975 50.3814C45.329 50.4379 46.151 50.1781 46.7989 49.654C50.4387 52.4561 54.9071 53.9683 59.5006 53.9524C62.6651 53.949 65.7878 53.2296 68.6348 51.848C71.4818 50.4664 73.9793 48.4584 75.9401 45.9746C77.9009 43.4908 79.2742 40.5954 79.9572 37.5055C80.6401 34.4156 80.615 31.2111 79.8837 28.1323C79.8691 28.069 79.842 28.0093 79.8042 27.9566C79.7664 27.9038 79.7185 27.8591 79.6633 27.8249C79.6081 27.7908 79.5466 27.7679 79.4826 27.7575C79.4185 27.7472 79.353 27.7497 79.2898 27.7648ZM39.5342 33.0016C39.5344 29.4501 40.4819 25.9628 42.2789 22.8994C44.076 19.8361 46.6576 17.3074 49.7575 15.5742C52.8575 13.841 56.3636 12.966 59.9144 13.0394C63.4652 13.1128 66.9322 14.1319 69.958 15.9916C69.6456 16.6598 69.5957 17.4209 69.8179 18.1241C70.0401 18.8274 70.5184 19.4215 71.1579 19.7889C71.7975 20.1562 72.5516 20.27 73.2711 20.1077C73.9905 19.9453 74.6228 19.5187 75.0426 18.9123C75.4624 18.3059 75.6392 17.564 75.5379 16.8334C75.4366 16.1029 75.0646 15.437 74.4956 14.9677C73.9267 14.4984 73.2022 14.2599 72.4657 14.2995C71.7293 14.339 71.0345 14.6537 70.519 15.1812C67.3453 13.2192 63.7052 12.1404 59.975 12.0561C56.2447 11.9719 52.5596 12.8853 49.3005 14.702C46.0415 16.5187 43.3266 19.1727 41.4366 22.3899C39.5467 25.607 38.55 29.2704 38.5498 33.0016C38.5481 34.2806 38.6645 35.5569 38.8976 36.8145C38.9176 36.9277 38.977 37.0303 39.0652 37.1042C39.1535 37.178 39.2649 37.2183 39.38 37.218C39.4098 37.218 39.4395 37.2147 39.4686 37.2082C39.5969 37.185 39.7107 37.1119 39.7852 37.0049C39.8596 36.8978 39.8885 36.7656 39.8656 36.6373C39.6444 35.438 39.5335 34.2211 39.5342 33.0016Z" fill="white"/>
<path d="M56.5469 29.7513V30.0466H62.4531V29.7513C62.4072 25.7613 56.5928 25.7613 56.5469 29.7513Z" fill="white"/>
<path d="M73.2654 22.7764C67.7267 22.8322 62.3979 19.4099 60.3603 17.9333C60.11 17.7526 59.8092 17.6553 59.5006 17.6553C59.1919 17.6553 58.8911 17.7526 58.6409 17.9333C56.6032 19.4099 51.2613 22.8191 45.7357 22.7764C45.5395 22.7745 45.3448 22.8114 45.1629 22.885C44.981 22.9586 44.8154 23.0674 44.6757 23.2053C44.536 23.3432 44.425 23.5073 44.349 23.6882C44.273 23.8691 44.2335 24.0633 44.2329 24.2596C44.2362 31.836 45.7521 42.674 58.8345 49.2955C59.0408 49.4007 59.269 49.4555 59.5006 49.4555C59.7321 49.4555 59.9604 49.4007 60.1667 49.2955C73.249 42.674 74.7649 31.836 74.7682 24.2596C74.7653 23.8637 74.6054 23.4852 74.3236 23.2071C74.0419 22.9291 73.6613 22.7742 73.2654 22.7764ZM64.9146 37.7586C64.9146 38.4113 64.6554 39.0373 64.1938 39.4988C63.7323 39.9603 63.1064 40.2196 62.4537 40.2196H56.5474C55.8948 40.2196 55.2688 39.9603 54.8073 39.4988C54.3458 39.0373 54.0865 38.4113 54.0865 37.7586V32.5086C54.0868 32.03 54.2266 31.5618 54.4888 31.1615C54.7511 30.7611 55.1244 30.4459 55.5631 30.2544V29.7458C55.6221 24.4794 63.379 24.4794 63.4381 29.7458V30.2544C63.8767 30.4459 64.2501 30.7611 64.5123 31.1615C64.7746 31.5618 64.9144 32.03 64.9146 32.5086V37.7586Z" fill="white"/>
<path d="M60.306 34.5666C60.2987 34.5226 60.3008 34.4775 60.3121 34.4343C60.3234 34.3911 60.3437 34.3508 60.3717 34.3159C60.4816 34.157 60.5459 33.971 60.5577 33.7781C60.5695 33.5852 60.5283 33.3928 60.4386 33.2217C60.3488 33.0505 60.214 32.9072 60.0486 32.8072C59.8833 32.7072 59.6937 32.6543 59.5005 32.6543C59.3072 32.6543 59.1177 32.7072 58.9523 32.8072C58.787 32.9072 58.6521 33.0505 58.5624 33.2217C58.4727 33.3928 58.4315 33.5852 58.4433 33.7781C58.4551 33.971 58.5194 34.157 58.6293 34.3159C58.6571 34.3504 58.6774 34.3903 58.6887 34.4331C58.7 34.4759 58.7021 34.5206 58.6949 34.5643C58.6178 34.9486 58.3996 36.0471 58.2457 36.8097C58.227 36.9048 58.2296 37.0029 58.2533 37.0969C58.277 37.1908 58.3213 37.2784 58.3829 37.3533C58.4445 37.4281 58.5219 37.4884 58.6095 37.5298C58.6972 37.5712 58.7929 37.5926 58.8898 37.5926H60.1105C60.2076 37.5926 60.3035 37.5711 60.3913 37.5296C60.4791 37.4881 60.5565 37.4276 60.6181 37.3525C60.6797 37.2774 60.7239 37.1896 60.7474 37.0954C60.771 37.0012 60.7733 36.9029 60.7543 36.8077L60.306 34.5666Z" fill="white"/>
</g>
<defs>
<radialGradient id="paint0_radial_1327_5362" cx="0" cy="0" r="1" gradientUnits="userSpaceOnUse" gradientTransform="translate(0 29.5) rotate(90) scale(136.063 465)">
<stop stop-color="white"/>
<stop offset="1" stop-color="white" stop-opacity="0"/>
</radialGradient>
<clipPath id="clip0_1327_5362">
<rect width="42" height="42" fill="white" transform="translate(38.5 12)"/>
</clipPath>
</defs>
</svg>
