<svg width="466" height="285" viewBox="0 0 466 285" fill="none" xmlns="http://www.w3.org/2000/svg">
<path d="M0 47.5C0 37.5589 8.05887 29.5 18 29.5H121.582C126.773 29.5 131.711 31.7406 135.129 35.6469L145.371 47.3531C148.789 51.2594 153.727 53.5 158.918 53.5H447C456.941 53.5 465 61.5589 465 71.5V266.5C465 276.441 456.941 284.5 447 284.5H18C8.05889 284.5 0 276.441 0 266.5V47.5Z" fill="white" fill-opacity="0.05"/>
<path d="M0 47.5C0 37.5589 8.05887 29.5 18 29.5H121.582C126.773 29.5 131.711 31.7406 135.129 35.6469L145.371 47.3531C148.789 51.2594 153.727 53.5 158.918 53.5H447C456.941 53.5 465 61.5589 465 71.5V266.5C465 276.441 456.941 284.5 447 284.5H18C8.05889 284.5 0 276.441 0 266.5V47.5Z" fill="url(#paint0_radial_1327_5290)" fill-opacity="0.1"/>
<rect x="26.5" width="66" height="66" rx="33" fill="#FE4C00"/>
<path fill-rule="evenodd" clip-rule="evenodd" d="M45.8185 46.0719L45.895 46.1506C46.1335 46.395 46.1277 46.7906 45.8814 47.0271L42.1388 50.6612C41.8925 50.8977 41.4989 50.8919 41.2623 50.6476L39.9107 49.2552C39.6721 49.009 39.678 48.6154 39.9223 48.3788L43.6668 44.7448C43.9112 44.5082 44.3068 44.5139 44.5434 44.7583L44.6205 44.8378L46.7579 42.7632C45.9819 41.6563 45.5265 40.3082 45.5265 38.8536C45.5265 35.0877 48.5788 32.0354 52.3447 32.0354C56.1105 32.0354 59.1628 35.0877 59.1628 38.8536C59.1628 42.6194 56.1105 45.6717 52.3447 45.6717C50.6537 45.6717 49.1067 45.0563 47.9152 44.0373L45.8185 46.0719ZM52.3447 43.1796C54.7286 43.1796 56.6707 41.2375 56.6707 38.8536C56.6707 36.4725 54.7286 34.5275 52.3447 34.5275C49.9636 34.5275 48.0187 36.4725 48.0187 38.8536C48.0187 41.2375 49.9636 43.1796 52.3447 43.1796ZM49.8466 39.4415C49.7231 39.3179 49.6537 39.1503 49.6537 38.9756C49.6537 38.8009 49.7231 38.6334 49.8466 38.5098C49.9702 38.3863 50.1377 38.3169 50.3125 38.3169C50.4872 38.3169 50.6547 38.3863 50.7783 38.5098L51.5207 39.2523L53.9371 37.0602C54.0665 36.9429 54.2373 36.8817 54.4118 36.8902C54.5863 36.8987 54.7503 36.9762 54.8677 37.1056C54.985 37.235 55.0462 37.4057 55.0377 37.5802C55.0292 37.7547 54.9518 37.9187 54.8224 38.0361L51.9413 40.6498C51.816 40.7634 51.6518 40.8245 51.4826 40.8204C51.3135 40.8163 51.1524 40.7473 51.0328 40.6276L49.8466 39.4415ZM63.5504 27.4384C63.5504 27.3728 63.5765 27.31 63.6227 27.2636C63.6691 27.2173 63.732 27.1913 63.7975 27.1913H65.4627C65.5282 27.1913 65.591 27.2174 65.6374 27.2637C65.6837 27.31 65.7097 27.3729 65.7097 27.4384V34.7316C65.7097 34.7971 65.6837 34.8599 65.6374 34.9063C65.591 34.9526 65.5282 34.9786 65.4627 34.9786H63.7975C63.732 34.9786 63.6691 34.9526 63.6227 34.9063C63.5765 34.8599 63.5504 34.7971 63.5504 34.7316V27.4384ZM67.56 28.9107C67.56 28.8452 67.586 28.7824 67.6323 28.736C67.6787 28.6897 67.7415 28.6637 67.807 28.6636H69.4723C69.5378 28.6636 69.6006 28.6897 69.647 28.736C69.6933 28.7823 69.7193 28.8452 69.7193 28.9107V34.7316C69.7193 34.7971 69.6933 34.8599 69.647 34.9063C69.6006 34.9526 69.5378 34.9786 69.4723 34.9786H67.807C67.7415 34.9786 67.6787 34.9526 67.6323 34.9062C67.586 34.8599 67.56 34.7971 67.56 34.7316V28.9107ZM71.571 24.6046C71.571 24.5391 71.5971 24.4763 71.6434 24.43C71.6897 24.3837 71.7525 24.3577 71.818 24.3576H73.4833C73.5488 24.3576 73.6116 24.3836 73.658 24.4299C73.7043 24.4763 73.7303 24.5391 73.7303 24.6046V34.7316C73.7303 34.7971 73.7043 34.8599 73.658 34.9063C73.6116 34.9526 73.5488 34.9786 73.4833 34.9786H71.818C71.7525 34.9786 71.6897 34.9525 71.6434 34.9062C71.5971 34.8599 71.571 34.7971 71.571 34.7316V24.6046ZM59.5394 31.9062C59.5394 31.8407 59.5655 31.7778 59.6118 31.7315C59.6581 31.6852 59.721 31.6591 59.7865 31.6591H61.4531C61.5186 31.6591 61.5814 31.6852 61.6278 31.7315C61.6741 31.7778 61.7001 31.8407 61.7001 31.9062V35.5551C61.7001 35.6206 61.6741 35.6835 61.6278 35.7299C61.5815 35.7761 61.5186 35.8021 61.4531 35.8022H59.7865C59.721 35.8021 59.6581 35.7761 59.6117 35.7299C59.5655 35.6835 59.5394 35.6206 59.5394 35.5551V31.9062ZM62.2981 25.7082C62.3646 25.8971 62.3985 26.0961 62.3983 26.2964C62.3983 27.2762 61.5997 28.0735 60.6197 28.0735C59.6399 28.0735 58.8413 27.2762 58.8413 26.2964C58.8413 25.3167 59.6402 24.5178 60.6197 24.5178C60.9122 24.5178 61.1885 24.589 61.4322 24.7149L62.9524 23.3908C62.886 23.2022 62.8521 23.0037 62.8523 22.8038C62.8523 21.8239 63.6517 21.0252 64.6293 21.0252C65.609 21.0252 66.4079 21.8241 66.4079 22.8038C66.4079 22.8508 66.406 22.8974 66.4024 22.9436L67.4514 23.461C67.7669 23.1767 68.184 23.0034 68.6403 23.0034C68.8761 23.0034 69.1013 23.0496 69.3073 23.1334L71.0324 21.3327C70.927 21.1017 70.8726 20.8506 70.8729 20.5967C70.8729 19.6168 71.6701 18.8182 72.6499 18.8182C73.6296 18.8182 74.4285 19.617 74.4285 20.5967C74.4285 21.5763 73.6296 22.3752 72.6499 22.3752C72.4213 22.3755 72.1948 22.3313 71.9831 22.2451L70.2579 24.0459C70.3634 24.2769 70.4178 24.5279 70.4175 24.7818C70.4175 25.7598 69.6204 26.559 68.6403 26.559C67.6605 26.559 66.8619 25.7595 66.8619 24.7818C66.8619 24.7348 66.8637 24.6882 66.8673 24.642L65.8173 24.1242C65.502 24.4078 65.0853 24.5809 64.6293 24.5809C64.3377 24.5809 64.0618 24.5098 63.8183 24.384L62.2981 25.7082ZM60.6197 26.7558C60.8734 26.7558 61.0807 26.55 61.0807 26.2964C61.0805 26.1742 61.0318 26.0571 60.9454 25.9707C60.859 25.8843 60.7419 25.8357 60.6197 25.8355C60.4976 25.8357 60.3805 25.8844 60.2941 25.9707C60.2077 26.0571 60.1591 26.1742 60.1589 26.2964C60.1589 26.55 60.3662 26.7558 60.6197 26.7558ZM64.6293 23.2633C64.883 23.2633 65.0903 23.0568 65.0903 22.8038C65.0901 22.6816 65.0414 22.5645 64.955 22.4781C64.8686 22.3917 64.7515 22.3431 64.6293 22.3429C64.3763 22.3429 64.1699 22.5502 64.1699 22.8038C64.1699 23.0566 64.3765 23.2633 64.6293 23.2633ZM72.6499 21.0576C72.9038 21.0576 73.1109 20.8506 73.1109 20.5967C73.1109 20.3428 72.9038 20.1358 72.6499 20.1358C72.3963 20.1358 72.1905 20.343 72.1905 20.5967C72.1905 20.8503 72.3963 21.0576 72.6499 21.0576ZM68.6403 25.2414C68.7622 25.2412 68.8789 25.1927 68.965 25.1065C69.0512 25.0204 69.0997 24.9037 69.0999 24.7818C69.0999 24.5283 68.894 24.321 68.6403 24.321C68.5182 24.3212 68.4011 24.3699 68.3147 24.4562C68.2284 24.5426 68.1797 24.6597 68.1795 24.7818C68.1795 25.0349 68.3867 25.2414 68.6403 25.2414ZM53.2607 20.1546C53.3117 20.1743 53.4227 20.2033 53.4649 20.2396L56.1017 22.4681C56.1439 22.5044 56.1637 22.6285 56.1866 22.6724H53.4985C53.3682 22.6724 53.2607 22.58 53.2607 22.468V20.1546ZM44.8428 42.0078H42.7751C41.1037 42.0078 39.7354 40.6395 39.7354 38.968V18.0632C39.7354 16.3917 41.1037 15.0234 42.7751 15.0234H76.2251C77.8965 15.0234 79.2648 16.3917 79.2648 18.0632V38.968C79.2648 40.6395 77.8965 42.0078 76.2251 42.0078H65.7136V46.837H70.3389C71.7635 46.837 72.9305 47.7679 72.9305 48.9054V50.9766H46.0723V48.9054C46.0723 47.7679 47.2394 46.837 48.664 46.837H50.7692C51.2882 46.9386 51.8158 46.9896 52.3447 46.9893C56.8383 46.9893 60.4804 43.3472 60.4804 38.8536C60.4809 38.1914 60.4007 37.5316 60.2417 36.8888H76.7241V17.988C76.7241 17.7546 76.5336 17.5668 76.3029 17.5668H42.6999C42.4665 17.5668 42.276 17.7546 42.276 17.988V36.8888H44.4476C44.2886 37.5316 44.2084 38.1914 44.2089 38.8536C44.2089 39.972 44.4345 41.0378 44.8428 42.0078ZM45.4611 34.5145H45.3974C45.3206 34.5145 45.2469 34.484 45.1925 34.4298C45.1381 34.3756 45.1074 34.3021 45.1071 34.2253V20.4449C45.1071 20.3679 45.1377 20.2941 45.1922 20.2397C45.2466 20.1852 45.3204 20.1546 45.3974 20.1546H51.943V22.468C51.943 23.2454 52.5937 23.99 53.4985 23.99H56.1866V31.6801C55.0424 31.066 53.7342 30.7178 52.3447 30.7178C49.4463 30.7178 46.9022 32.2329 45.4611 34.5145ZM46.7497 30.1581H52.7318C53.0954 30.1581 53.3906 29.8629 53.3906 29.4993C53.3906 29.1357 53.0954 28.8404 52.7318 28.8404H46.7497C46.3861 28.8404 46.0909 29.1357 46.0909 29.4993C46.0909 29.8629 46.3861 30.1581 46.7497 30.1581ZM46.7497 27.7559H52.7318C53.0954 27.7559 53.3906 27.4607 53.3906 27.097C53.3906 26.7334 53.0954 26.4382 52.7318 26.4382H46.7497C46.3861 26.4382 46.0909 26.7334 46.0909 27.097C46.0909 27.4607 46.3861 27.7559 46.7497 27.7559ZM46.7497 25.3536H50.6469C51.0105 25.3536 51.3057 25.0585 51.3057 24.6948C51.3057 24.3312 51.0105 24.036 50.6469 24.036H46.7497C46.3861 24.036 46.0909 24.3312 46.0909 24.6948C46.0909 25.0585 46.3861 25.3536 46.7497 25.3536Z" fill="white"/>
<defs>
<radialGradient id="paint0_radial_1327_5290" cx="0" cy="0" r="1" gradientUnits="userSpaceOnUse" gradientTransform="translate(0 29.5) rotate(90) scale(136.063 465)">
<stop stop-color="white"/>
<stop offset="1" stop-color="white" stop-opacity="0"/>
</radialGradient>
</defs>
</svg>
