<svg width="432" height="275" viewBox="0 0 432 275" fill="none" xmlns="http://www.w3.org/2000/svg">
<path d="M194.723 246.939C168.676 260.663 138.808 265.343 109.811 260.244C80.8152 255.145 54.335 240.556 34.5325 218.77C14.7299 196.983 2.72754 169.235 0.411569 139.885C-1.9044 110.535 5.59732 81.2472 21.7378 56.6247L51.0502 75.8395C39.1691 93.9642 33.647 115.523 35.3518 137.128C37.0566 158.732 45.8916 179.158 60.4684 195.195C75.0452 211.232 94.5374 221.971 115.882 225.725C137.226 229.478 159.213 226.033 178.386 215.931L194.723 246.939Z" fill="#FE4C00"/>
<path d="M227.353 23.0436C254.656 6.26374 287.106 -0.0782359 318.717 5.18726C350.329 10.4527 378.97 26.9706 399.36 51.6945C419.75 76.4185 430.512 107.681 429.663 139.717C428.813 171.753 416.409 202.401 394.738 226.01L368.918 202.308C384.87 184.93 394.001 162.369 394.626 138.788C395.251 115.206 387.329 92.1935 372.32 73.9941C357.311 55.7946 336.228 43.6357 312.958 39.7598C289.689 35.8838 265.803 40.5522 245.705 52.904L227.353 23.0436Z" fill="white"/>
<path d="M56.0576 62.3216L37.4825 37.7306L47.6407 30.0575C49.4819 28.6668 51.3218 27.7987 53.1604 27.4534C55.0011 27.0939 56.7512 27.2555 58.4108 27.938C60.0644 28.6125 61.5261 29.7903 62.7958 31.4713C64.0837 33.1764 64.8059 34.9064 64.9624 36.6615C65.1129 38.4085 64.7395 40.1112 63.8423 41.7696C62.939 43.4199 61.5508 44.9525 59.6777 46.3674L53.2538 51.2198L49.7165 46.5369L55.0358 42.519C55.9323 41.8418 56.5931 41.1603 57.0181 40.4747C57.4451 39.775 57.6333 39.0671 57.5827 38.351C57.526 37.6269 57.2105 36.8846 56.6361 36.1241C56.0617 35.3637 55.4309 34.8532 54.7438 34.5927C54.0507 34.3242 53.3062 34.2957 52.5104 34.5071C51.7086 34.7104 50.8634 35.1477 49.9748 35.8189L47.045 38.0319L62.0012 57.832L56.0576 62.3216ZM61.4126 40.6252L76.0257 47.2384L69.5418 52.1361L55.0488 45.4322L61.4126 40.6252Z" fill="#FE4C00"/>
<path d="M94.2818 38.3405C91.9255 38.882 89.7851 38.8848 87.8607 38.3492C85.9438 37.8015 84.327 36.7679 83.0103 35.2486C81.7012 33.7172 80.7714 31.7538 80.221 29.3584C79.6863 27.0314 79.6785 24.8922 80.1977 22.9407C80.7146 20.9794 81.6978 19.3227 83.1473 17.9706C84.5945 16.6087 86.4522 15.6672 88.7205 15.146C90.324 14.7776 91.8478 14.6899 93.2921 14.883C94.7364 15.0761 96.0548 15.5503 97.2474 16.3056C98.44 17.0609 99.4703 18.0954 100.338 19.409C101.204 20.7129 101.849 22.2888 102.274 24.1367L102.685 25.9259L83.1062 30.4247L82.1492 26.2596L95.055 23.2941C94.87 22.5338 94.5329 21.8958 94.0439 21.3803C93.5549 20.8648 92.9642 20.5116 92.2719 20.3207C91.5871 20.1178 90.8487 20.1073 90.0568 20.2893C89.255 20.4735 88.578 20.8195 88.0256 21.3273C87.471 21.8253 87.0786 22.425 86.8486 23.1263C86.6164 23.8178 86.5792 24.552 86.7372 25.3289L87.7111 29.5673C87.9222 30.4864 88.2885 31.2514 88.8097 31.8625C89.3287 32.4637 89.9645 32.8786 90.7169 33.1072C91.4694 33.3357 92.3051 33.3444 93.2242 33.1332C93.8597 32.9872 94.4163 32.7666 94.8941 32.4716C95.3718 32.1765 95.7572 31.8152 96.0501 31.3877C96.343 30.9601 96.525 30.4756 96.5962 29.9343L103.225 28.6119C103.29 30.1512 102.984 31.575 102.307 32.8835C101.638 34.1799 100.624 35.3031 99.2678 36.253C97.909 37.1931 96.247 37.889 94.2818 38.3405Z" fill="#FE4C00"/>
<path d="M123.856 33.0462C122.382 32.997 121.082 32.7077 119.955 32.1783C118.839 31.6391 117.967 30.8572 117.338 29.8325C116.72 28.798 116.437 27.5188 116.488 25.9948C116.531 24.7115 116.792 23.6362 117.273 22.7689C117.754 21.9017 118.399 21.2055 119.21 20.6805C120.02 20.1555 120.946 19.7699 121.989 19.5236C123.031 19.2673 124.14 19.1086 125.317 19.0475C126.634 18.9711 127.696 18.881 128.503 18.7775C129.309 18.6639 129.898 18.4878 130.267 18.2492C130.647 18.0009 130.844 17.6411 130.86 17.1699L130.862 17.0947C130.888 16.3227 130.642 15.7172 130.125 15.2784C129.608 14.8395 128.898 14.605 127.996 14.5749C127.023 14.5425 126.234 14.7269 125.628 15.1283C125.023 15.5296 124.627 16.0986 124.442 16.8352L117.667 16.3681C117.915 14.9711 118.473 13.7351 119.342 12.66C120.221 11.5752 121.403 10.7414 122.888 10.1586C124.384 9.56609 126.164 9.30432 128.229 9.37327C129.703 9.42247 131.056 9.64329 132.288 10.0357C133.519 10.4181 134.586 10.9556 135.486 11.6481C136.387 12.3306 137.072 13.1565 137.541 14.1257C138.021 15.0953 138.24 16.1917 138.199 17.4149L137.675 33.1161L130.757 32.8851L130.864 29.6667L130.684 29.6607C130.247 30.429 129.698 31.0732 129.038 31.5932C128.389 32.1135 127.628 32.4946 126.757 32.7366C125.896 32.9788 124.929 33.082 123.856 33.0462ZM126.287 28.3094C127.079 28.3358 127.797 28.1992 128.439 27.8994C129.091 27.6 129.618 27.1759 130.017 26.6272C130.417 26.0684 130.63 25.413 130.655 24.661L130.728 22.4653C130.514 22.5685 130.255 22.6603 129.951 22.7405C129.658 22.821 129.334 22.8955 128.98 22.964C128.627 23.0325 128.263 23.0906 127.89 23.1384C127.517 23.1862 127.16 23.2294 126.817 23.2682C126.122 23.3554 125.524 23.5061 125.025 23.7203C124.536 23.9348 124.155 24.2232 123.882 24.5855C123.62 24.9381 123.48 25.365 123.463 25.8663C123.438 26.6283 123.689 27.2189 124.217 27.638C124.755 28.0575 125.445 28.2813 126.287 28.3094Z" fill="#FE4C00"/>
<path d="M170.357 9.23418L163.283 39.2293L156.121 37.5403L163.195 7.54513L170.357 9.23418Z" fill="#FE4C00"/>
<path d="M197.005 28.6456L200.634 23.8059L221.474 39.4325L217.844 44.2722L210.368 38.6661L195.509 58.4827L189.634 54.0772L204.493 34.2607L197.005 28.6456Z" fill="#FE4C00"/>
<path d="M211.921 80.72C210.224 78.9979 209.099 77.1771 208.546 75.2577C208.007 73.3384 208.039 71.4198 208.642 69.5018C209.259 67.5839 210.443 65.7624 212.193 64.0373C213.894 62.3615 215.711 61.2328 217.645 60.6511C219.586 60.0625 221.512 60.0305 223.424 60.5554C225.342 61.0731 227.118 62.1609 228.752 63.8187C229.907 64.9906 230.781 66.242 231.374 67.5729C231.967 68.9038 232.255 70.2751 232.237 71.6866C232.22 73.0981 231.879 74.5179 231.216 75.946C230.56 77.367 229.557 78.743 228.206 80.0737L226.899 81.3623L212.799 67.0531L215.843 64.0536L225.137 73.4858C225.688 72.9295 226.054 72.3079 226.236 71.6211C226.419 70.9344 226.41 70.2462 226.209 69.5566C226.023 68.8672 225.644 68.233 225.074 67.6542C224.496 67.0683 223.847 66.6733 223.125 66.4694C222.41 66.2584 221.693 66.239 220.976 66.411C220.265 66.576 219.62 66.9295 219.042 67.4715L215.944 70.5239C215.272 71.1857 214.813 71.8988 214.566 72.6631C214.327 73.4204 214.307 74.1793 214.507 74.9398C214.707 75.7003 215.138 76.4164 215.8 77.0881C216.258 77.5526 216.738 77.9108 217.239 78.1628C217.741 78.4148 218.251 78.5533 218.769 78.5784C219.286 78.6035 219.794 78.5044 220.292 78.281L224.895 83.2309C223.619 84.0941 222.246 84.5805 220.777 84.6903C219.322 84.8002 217.834 84.5268 216.314 83.87C214.801 83.2063 213.337 82.1563 211.921 80.72Z" fill="#FE4C00"/>
<path d="M222.548 106.681C221.458 104.501 220.972 102.406 221.089 100.396C221.21 98.3948 221.861 96.578 223.041 94.9451C224.23 93.3078 225.879 91.9622 227.988 90.9083C230.106 89.8499 232.172 89.3388 234.187 89.3751C236.214 89.4159 238.065 89.9882 239.738 91.0922C241.416 92.2051 242.795 93.8429 243.876 96.0056C244.831 97.9169 245.318 99.7542 245.335 101.517C245.357 103.29 244.935 104.891 244.069 106.322C243.216 107.758 241.953 108.922 240.28 109.814L237.205 103.663C238.202 103.008 238.852 102.234 239.157 101.341C239.467 100.457 239.387 99.5445 238.916 98.6023C238.535 97.8395 237.985 97.2786 237.267 96.9196C236.559 96.556 235.706 96.4213 234.71 96.5153C233.728 96.6138 232.626 96.968 231.406 97.578C230.185 98.1879 229.232 98.8607 228.545 99.5963C227.872 100.336 227.464 101.101 227.32 101.891C227.185 102.676 227.309 103.45 227.69 104.213C227.995 104.823 228.394 105.296 228.887 105.633C229.385 105.978 229.962 106.178 230.617 106.232C231.281 106.282 231.996 106.165 232.764 105.883L235.838 112.034C234.101 112.823 232.399 113.141 230.73 112.989C229.065 112.845 227.524 112.241 226.107 111.178C224.703 110.118 223.517 108.62 222.548 106.681Z" fill="#FE4C00"/>
<path d="M240.236 127.651L227.163 129.341L226.22 122.043L256.783 118.091L257.696 125.15L245.847 126.682L245.879 126.936C247.359 127.271 248.573 127.974 249.52 129.045C250.469 130.126 251.055 131.522 251.276 133.233C251.484 134.845 251.307 136.294 250.745 137.581C250.193 138.866 249.313 139.92 248.105 140.744C246.898 141.578 245.428 142.102 243.695 142.316L229.085 144.205L228.142 136.907L241.319 135.203C242.594 135.049 243.548 134.602 244.18 133.862C244.813 133.123 245.053 132.166 244.902 130.992C244.803 130.226 244.546 129.572 244.132 129.028C243.729 128.494 243.198 128.102 242.539 127.854C241.881 127.615 241.113 127.547 240.236 127.651Z" fill="#FE4C00"/>
<path d="M164.389 145.212L194.652 139.388L197.058 151.889C197.494 154.155 197.461 156.189 196.96 157.992C196.471 159.802 195.554 161.302 194.21 162.49C192.875 163.677 191.173 164.469 189.104 164.867C187.006 165.271 185.135 165.156 183.491 164.522C181.857 163.887 180.493 162.801 179.401 161.264C178.318 159.725 177.555 157.803 177.111 155.498L175.59 147.593L181.353 146.484L182.612 153.03C182.825 154.133 183.145 155.027 183.573 155.711C184.012 156.402 184.565 156.883 185.23 157.154C185.904 157.422 186.71 157.467 187.646 157.287C188.582 157.107 189.318 156.766 189.855 156.264C190.401 155.76 190.755 155.105 190.917 154.297C191.088 153.488 191.068 152.536 190.858 151.443L190.164 147.837L165.797 152.527L164.389 145.212ZM181.499 159.588L169.119 169.786L167.583 161.806L179.992 151.756L181.499 159.588Z" fill="white"/>
<path d="M174.42 189.915C173.281 187.782 172.719 185.717 172.732 183.719C172.76 181.726 173.334 179.895 174.456 178.227C175.592 176.563 177.244 175.152 179.412 173.994C181.518 172.869 183.58 172.302 185.6 172.293C187.628 172.278 189.484 172.794 191.168 173.839C192.861 174.88 194.256 176.427 195.352 178.48C196.128 179.931 196.611 181.379 196.802 182.823C196.994 184.268 196.881 185.664 196.464 187.013C196.047 188.362 195.318 189.627 194.277 190.808C193.245 191.985 191.893 193.02 190.22 193.913L188.601 194.778L179.137 177.057L182.907 175.044L189.145 186.725C189.831 186.347 190.358 185.855 190.728 185.248C191.097 184.642 191.284 183.979 191.287 183.261C191.304 182.547 191.121 181.831 190.738 181.115C190.35 180.389 189.839 179.826 189.205 179.426C188.579 179.021 187.897 178.799 187.16 178.76C186.432 178.717 185.714 178.873 185.005 179.229L181.169 181.278C180.337 181.722 179.695 182.276 179.241 182.938C178.797 183.597 178.563 184.319 178.539 185.105C178.515 185.891 178.725 186.7 179.17 187.532C179.477 188.107 179.835 188.586 180.245 188.97C180.655 189.354 181.104 189.632 181.594 189.803C182.083 189.973 182.598 190.022 183.139 189.949L186.15 196.001C184.681 196.467 183.227 196.544 181.787 196.233C180.36 195.926 179.011 195.242 177.739 194.181C176.477 193.115 175.37 191.693 174.42 189.915Z" fill="white"/>
<path d="M190.102 214.089C189.128 212.982 188.447 211.837 188.061 210.654C187.689 209.471 187.661 208.3 187.976 207.14C188.306 205.981 189.044 204.898 190.189 203.891C191.153 203.043 192.115 202.497 193.076 202.253C194.037 202.008 194.987 202.002 195.924 202.232C196.862 202.463 197.778 202.873 198.671 203.463C199.572 204.047 200.448 204.746 201.298 205.561C202.257 206.468 203.05 207.18 203.678 207.696C204.314 208.206 204.845 208.514 205.272 208.619C205.713 208.726 206.11 208.623 206.464 208.312L206.521 208.262C207.101 207.752 207.373 207.158 207.338 206.48C207.304 205.803 206.988 205.125 206.392 204.447C205.749 203.717 205.074 203.268 204.366 203.102C203.659 202.936 202.974 203.038 202.31 203.408L198.008 198.154C199.195 197.377 200.478 196.936 201.857 196.833C203.249 196.73 204.667 197.019 206.108 197.701C207.565 198.385 208.975 199.502 210.34 201.053C211.314 202.161 212.08 203.297 212.639 204.463C213.204 205.622 213.543 206.767 213.656 207.897C213.776 209.021 213.644 210.086 213.26 211.092C212.882 212.106 212.234 213.017 211.315 213.825L199.52 224.202L194.948 219.005L197.365 216.878L197.246 216.743C196.387 216.951 195.542 216.993 194.711 216.868C193.887 216.752 193.088 216.459 192.315 215.99C191.548 215.529 190.811 214.895 190.102 214.089ZM195.218 212.615C195.741 213.21 196.332 213.638 196.991 213.901C197.656 214.171 198.325 214.263 198.999 214.178C199.68 214.087 200.303 213.793 200.868 213.296L202.517 211.844C202.295 211.759 202.051 211.633 201.784 211.467C201.524 211.308 201.248 211.124 200.956 210.913C200.664 210.702 200.373 210.478 200.082 210.239C199.792 210 199.515 209.769 199.252 209.546C198.712 209.099 198.193 208.767 197.695 208.551C197.204 208.342 196.733 208.262 196.282 208.311C195.845 208.361 195.438 208.552 195.062 208.883C194.489 209.387 194.232 209.975 194.288 210.647C194.351 211.326 194.661 211.982 195.218 212.615Z" fill="white"/>
<path d="M232.707 213.419L214.188 238.052L208.306 233.63L226.825 208.997L232.707 213.419Z" fill="white"/>
<path d="M258.044 228.762L258.706 252.353L258.953 252.421L271.581 232.483L279.62 234.693L261.424 261.652L251.863 259.024L250.006 226.552L258.044 228.762Z" fill="white"/>
<path d="M284.452 267.524C282.978 267.543 281.665 267.313 280.516 266.836C279.376 266.349 278.468 265.608 277.794 264.614C277.129 263.609 276.787 262.344 276.768 260.819C276.751 259.535 276.963 258.449 277.404 257.56C277.844 256.672 278.457 255.947 279.242 255.385C280.028 254.823 280.935 254.396 281.965 254.102C282.994 253.798 284.095 253.588 285.268 253.473C286.58 253.336 287.637 253.197 288.438 253.057C289.238 252.906 289.818 252.703 290.176 252.448C290.544 252.182 290.724 251.814 290.719 251.342L290.718 251.267C290.708 250.495 290.434 249.901 289.897 249.487C289.36 249.072 288.641 248.87 287.738 248.882C286.765 248.894 285.985 249.115 285.398 249.543C284.812 249.972 284.443 250.559 284.292 251.303L277.503 251.148C277.686 249.741 278.187 248.481 279.005 247.367C279.834 246.243 280.976 245.356 282.433 244.705C283.899 244.044 285.666 243.701 287.732 243.675C289.207 243.656 290.568 243.815 291.816 244.15C293.065 244.475 294.154 244.963 295.085 245.614C296.017 246.254 296.739 247.047 297.253 247.994C297.776 248.94 298.046 250.026 298.061 251.249L298.26 266.958L291.339 267.046L291.298 263.826L291.117 263.828C290.716 264.616 290.198 265.284 289.563 265.834C288.937 266.384 288.195 266.799 287.336 267.081C286.487 267.363 285.525 267.51 284.452 267.524ZM286.663 262.68C287.456 262.67 288.166 262.501 288.794 262.172C289.432 261.843 289.938 261.395 290.312 260.828C290.686 260.252 290.868 259.587 290.858 258.835L290.831 256.638C290.621 256.751 290.367 256.855 290.067 256.949C289.777 257.043 289.457 257.132 289.107 257.217C288.757 257.301 288.397 257.376 288.027 257.441C287.656 257.506 287.301 257.566 286.96 257.62C286.27 257.739 285.68 257.917 285.191 258.154C284.713 258.391 284.345 258.697 284.089 259.071C283.843 259.435 283.723 259.868 283.73 260.37C283.739 261.132 284.017 261.711 284.564 262.105C285.121 262.499 285.821 262.691 286.663 262.68Z" fill="white"/>
<path d="M314.247 235.394L317.82 266.005L310.511 266.858L306.938 236.247L314.247 235.394Z" fill="white"/>
<path d="M341.257 249.112L336.945 236.703L343.882 234.292L351.468 256.125L344.844 258.427L343.432 254.362L343.204 254.441C343.185 255.945 342.729 257.293 341.837 258.484C340.951 259.663 339.688 260.537 338.049 261.107C336.561 261.624 335.135 261.737 333.77 261.446C332.405 261.156 331.198 260.508 330.148 259.503C329.094 258.488 328.276 257.158 327.694 255.513L322.859 241.597L329.81 239.182L334.171 251.733C334.592 252.914 335.229 253.739 336.082 254.207C336.935 254.676 337.892 254.725 338.953 254.357C339.645 254.116 340.213 253.749 340.657 253.255C341.108 252.748 341.392 252.144 341.51 251.445C341.634 250.733 341.55 249.955 341.257 249.112Z" fill="white"/>
<path d="M368.374 245.865C366.27 247.056 364.219 247.669 362.222 247.705C360.229 247.727 358.384 247.198 356.689 246.117C354.997 245.023 353.546 243.406 352.335 241.268C351.158 239.19 350.541 237.142 350.481 235.123C350.417 233.096 350.887 231.228 351.89 229.518C352.889 227.8 354.401 226.368 356.426 225.221C357.858 224.41 359.293 223.891 360.732 223.664C362.172 223.437 363.571 223.516 364.929 223.899C366.288 224.283 367.57 224.981 368.777 225.992C369.979 226.995 371.047 228.321 371.981 229.971L372.886 231.569L355.404 241.466L353.299 237.747L364.822 231.223C364.428 230.547 363.923 230.032 363.307 229.677C362.691 229.323 362.024 229.153 361.306 229.167C360.592 229.168 359.881 229.369 359.174 229.769C358.458 230.174 357.908 230.699 357.524 231.344C357.134 231.979 356.929 232.666 356.909 233.404C356.884 234.133 357.057 234.847 357.43 235.546L359.573 239.331C360.038 240.151 360.607 240.78 361.281 241.217C361.95 241.645 362.678 241.862 363.464 241.866C364.25 241.87 365.054 241.64 365.874 241.176C366.442 240.854 366.912 240.484 367.286 240.065C367.66 239.646 367.926 239.19 368.085 238.696C368.244 238.203 368.28 237.687 368.194 237.147L374.169 233.989C374.671 235.445 374.784 236.897 374.509 238.345C374.237 239.778 373.586 241.144 372.557 242.441C371.523 243.73 370.128 244.871 368.374 245.865Z" fill="white"/>
</svg>
