<svg width="247" height="36" viewBox="0 0 247 36" fill="none" xmlns="http://www.w3.org/2000/svg">
<path d="M14.3691 0.0165057C15.8011 -0.1253 17.0791 0.652918 17.4188 2.10795C17.5896 2.83588 17.4783 3.60161 17.1074 4.2507C16.7796 4.81773 15.1135 6.37696 14.5686 6.91759L9.52605 11.9688C9.36733 12.1278 9.10683 12.3559 8.96356 12.532C7.715 14.0675 4.65187 15.7263 5.87108 18.0574C6.17404 18.6366 6.78984 19.2039 7.24017 19.648L9.11798 21.5126C9.61531 21.9992 10.3123 22.6058 10.6965 23.1651C11.9274 24.9576 10.8768 27.1532 8.8562 27.5941C6.95951 27.8263 5.87656 26.1678 4.66414 24.9778C2.66322 23.0139 0.644498 21.3503 0.128237 18.4233C-0.240214 16.3343 0.191283 14.1767 1.34564 12.3827C2.04415 11.3268 3.61959 9.88692 4.56295 8.94452L9.59237 3.90933L11.1951 2.2923C12.2394 1.24335 12.8557 0.296886 14.3691 0.0165057Z" fill="white"/>
<path d="M23.5208 8.65765C23.6028 8.64571 23.8701 8.63611 23.9564 8.6366C26.2098 8.64943 28.3442 9.43108 29.9669 10.992C31.5335 12.4876 32.4438 14.5442 32.4982 16.7108C32.5432 18.9463 31.7429 21.0154 30.1762 22.6103C28.8868 23.9229 27.557 25.2142 26.273 26.5325C25.7713 27.0302 24.8537 27.6173 24.1297 27.5836C22.5885 27.5117 21.2385 26.2808 21.287 24.692C21.3269 23.3835 22.0127 22.7982 22.8393 21.9752L24.0774 20.7476C25.0953 19.7086 26.9922 18.3209 26.8428 16.7682C26.7795 16.052 26.4297 15.3919 25.873 14.9378C25.6134 14.7263 25.1485 14.4782 24.8118 14.3882C23.0183 13.909 22.2008 14.9736 21.1458 15.9909C20.4293 16.6818 18.4667 18.8276 17.7795 19.2554C17.4176 19.4781 17.0091 19.6136 16.586 19.6512C13.9247 19.9067 12.495 16.9234 14.2017 14.9506C14.8851 14.1607 15.7474 13.4524 16.4502 12.6964C18.5832 10.4022 20.249 8.93206 23.5208 8.65765Z" fill="white"/>
<path d="M16.2097 27C16.5709 27.4976 16.7946 28.0597 17.1678 28.5771C17.9971 29.7267 19.3597 30.9425 20.7506 31.4627C20.6231 31.5453 20.5064 31.6026 20.3733 31.6769C18.8646 32.5192 17.6062 33.7112 16.7258 35.1269C16.6207 35.2958 16.5599 35.483 16.4373 35.641L16.431 35.649C16.3635 35.764 16.286 35.8788 16.2367 36C16.2065 35.9493 16.1177 35.7801 16.1037 35.73C16.0737 35.6848 16.0425 35.6274 16.0161 35.5795C15.2224 34.1426 14.0767 32.8484 12.6092 31.9654C12.3169 31.7895 12.0282 31.6547 11.7506 31.4543C11.8998 31.4021 12.0463 31.3434 12.1895 31.2785C12.4606 31.1536 12.7443 30.9789 12.9933 30.8197C14.2166 30.0429 15.2017 28.9842 15.852 27.7476C15.9987 27.4749 16.1057 27.2875 16.2097 27Z" fill="#FE4C00"/>
<path d="M133.398 24.9648L131.836 25.2032V8.06915H136.205V27.9309H130.512L117.8 10.7968L119.336 10.5585V27.9309H114.993V8.06915H120.819L133.398 24.9648Z" fill="white"/>
<path d="M107.492 8.06915H111.994V27.9309H107.492V8.06915Z" fill="white"/>
<path d="M90.7321 16.4905H105.085V20.3304H90.7321V16.4905ZM105.536 8.06915V11.9356H90.785L93.0625 9.6316V27.9309H88.5605V8.06915H105.536Z" fill="white"/>
<path d="M74.9207 28.3281C72.6079 28.3281 70.5776 27.8955 68.8298 27.0305C67.0996 26.1654 65.749 24.9648 64.778 23.4289C63.807 21.8752 63.3215 20.0656 63.3215 18C63.3215 15.9344 63.807 14.1336 64.778 12.5976C65.749 11.044 67.0996 9.83463 68.8298 8.96955C70.5776 8.10446 72.6079 7.67191 74.9207 7.67191C77.2335 7.67191 79.255 8.10446 80.9852 8.96955C82.733 9.83463 84.0924 11.044 85.0634 12.5976C86.0345 14.1336 86.52 15.9344 86.52 18C86.52 20.0656 86.0345 21.8752 85.0634 23.4289C84.0924 24.9648 82.733 26.1654 80.9852 27.0305C79.255 27.8955 77.2335 28.3281 74.9207 28.3281ZM74.9207 24.3293C76.3684 24.3293 77.6131 24.0733 78.6547 23.5613C79.714 23.0493 80.5261 22.3166 81.0911 21.3633C81.6737 20.4099 81.965 19.2888 81.965 18C81.965 16.7112 81.6737 15.5901 81.0911 14.6368C80.5261 13.6834 79.714 12.9507 78.6547 12.4387C77.6131 11.9267 76.3684 11.6707 74.9207 11.6707C73.4907 11.6707 72.246 11.9267 71.1867 12.4387C70.1274 12.9507 69.3065 13.6834 68.7239 14.6368C68.1589 15.5901 67.8764 16.7112 67.8764 18C67.8764 19.2888 68.1589 20.4099 68.7239 21.3633C69.3065 22.3166 70.1274 23.0493 71.1867 23.5613C72.246 24.0733 73.4907 24.3293 74.9207 24.3293Z" fill="white"/>
<path d="M42.5 21.4427H47.055C47.1609 22.1136 47.4522 22.705 47.9289 23.217C48.4232 23.7113 49.0764 24.0998 49.8886 24.3822C50.7183 24.6471 51.6717 24.7795 52.7486 24.7795C54.3199 24.7795 55.5558 24.5588 56.4562 24.1174C57.3742 23.6584 57.8332 23.0228 57.8332 22.2107C57.8332 21.5751 57.5684 21.0896 57.0388 20.7542C56.5268 20.4011 55.5646 20.1451 54.1522 19.9862L50.1534 19.536C47.5758 19.2535 45.7044 18.6532 44.5391 17.7352C43.3916 16.7995 42.8178 15.5018 42.8178 13.8423C42.8178 12.5358 43.1974 11.4236 43.9565 10.5055C44.7333 9.58746 45.8191 8.8901 47.2138 8.41342C48.6086 7.91908 50.2505 7.67191 52.1395 7.67191C53.9757 7.67191 55.6087 7.94556 57.0388 8.49286C58.4688 9.02251 59.6076 9.77284 60.455 10.7439C61.3024 11.6972 61.7614 12.8183 61.8321 14.1071H57.2771C57.1888 13.5245 56.924 13.0213 56.4826 12.5976C56.0589 12.1562 55.4675 11.8208 54.7083 11.5913C53.9492 11.3441 53.0576 11.2205 52.0336 11.2205C50.6036 11.2205 49.4648 11.4324 48.6174 11.8561C47.77 12.2798 47.3463 12.8801 47.3463 13.6569C47.3463 14.2572 47.5934 14.725 48.0878 15.0605C48.5998 15.3783 49.4913 15.6166 50.7625 15.7755L54.9202 16.2787C56.7563 16.4729 58.2128 16.7906 59.2898 17.232C60.3844 17.6557 61.1612 18.2295 61.6202 18.9534C62.0969 19.6772 62.3352 20.5953 62.3352 21.7075C62.3352 23.0316 61.9292 24.1969 61.117 25.2032C60.3226 26.1919 59.2015 26.9598 57.7538 27.5071C56.3061 28.0544 54.6112 28.3281 52.6692 28.3281C50.6919 28.3281 48.9528 28.0456 47.4522 27.4807C45.9515 26.898 44.7686 26.0947 43.9036 25.0708C43.0385 24.0291 42.5706 22.8198 42.5 21.4427Z" fill="white"/>
<path d="M239.196 8.06914C240.591 8.06914 241.8 8.31631 242.824 8.81065C243.848 9.30499 244.643 10.0024 245.208 10.9027C245.773 11.7855 246.055 12.8095 246.055 13.9747C246.055 15.1399 245.773 16.1727 245.208 17.0731C244.643 17.9559 243.848 18.6532 242.824 19.1652C241.8 19.6596 240.591 19.9067 239.196 19.9067H230.139V17.7352H239.143C240.485 17.7352 241.544 17.3997 242.321 16.7289C243.116 16.0403 243.513 15.1223 243.513 13.9747C243.513 12.8271 243.116 11.9179 242.321 11.247C241.544 10.5761 240.485 10.2407 239.143 10.2407H230.404L231.516 9.02251V27.9309H229.027V8.06914H239.196Z" fill="#FE4C00"/>
<path d="M209.734 19.5889C209.734 20.8954 209.999 22.0341 210.528 23.0052C211.076 23.9585 211.852 24.7 212.859 25.2297C213.865 25.7593 215.048 26.0241 216.407 26.0241C217.784 26.0241 218.967 25.7593 219.956 25.2297C220.945 24.7 221.713 23.9585 222.26 23.0052C222.807 22.0341 223.081 20.8954 223.081 19.5889V8.06914H225.57V19.6419C225.57 21.3544 225.182 22.8639 224.405 24.1704C223.628 25.4592 222.551 26.4655 221.174 27.1894C219.815 27.9132 218.226 28.2751 216.407 28.2751C214.589 28.2751 212.991 27.9132 211.614 27.1894C210.237 26.4655 209.16 25.4592 208.383 24.1704C207.624 22.8639 207.244 21.3544 207.244 19.6419V8.06914H209.734V19.5889Z" fill="#FE4C00"/>
<path d="M193.726 28.2751C191.52 28.2751 189.569 27.8426 187.874 26.9775C186.197 26.1124 184.89 24.9119 183.954 23.3759C183.019 21.8223 182.551 20.0303 182.551 18C182.551 15.952 183.019 14.1601 183.954 12.6241C184.89 11.0881 186.197 9.8876 187.874 9.02251C189.569 8.15742 191.52 7.72488 193.726 7.72488C195.933 7.72488 197.875 8.15742 199.553 9.02251C201.23 9.8876 202.536 11.0881 203.472 12.6241C204.408 14.1601 204.875 15.952 204.875 18C204.875 20.0303 204.408 21.8223 203.472 23.3759C202.536 24.9119 201.23 26.1124 199.553 26.9775C197.875 27.8426 195.933 28.2751 193.726 28.2751ZM193.726 26.0241C195.474 26.0241 196.993 25.6975 198.281 25.0443C199.57 24.3734 200.568 23.4377 201.274 22.2372C201.98 21.0366 202.333 19.6242 202.333 18C202.333 16.3581 201.98 14.9369 201.274 13.7364C200.568 12.5358 199.57 11.6089 198.281 10.9557C196.993 10.3025 195.474 9.97587 193.726 9.97587C191.979 9.97587 190.46 10.3025 189.172 10.9557C187.883 11.6089 186.876 12.5358 186.153 13.7364C185.446 14.9369 185.093 16.3581 185.093 18C185.093 19.6242 185.446 21.0366 186.153 22.2372C186.876 23.4377 187.883 24.3734 189.172 25.0443C190.46 25.6975 191.979 26.0241 193.726 26.0241Z" fill="#FE4C00"/>
<path d="M165.678 17.4439H174.205C175.511 17.4439 176.553 17.1173 177.33 16.464C178.124 15.8108 178.521 14.9369 178.521 13.8423C178.521 12.73 178.124 11.8561 177.33 11.2205C176.553 10.5673 175.511 10.2407 174.205 10.2407H165.333L166.446 8.91658V27.9309H163.956V8.06914H174.284C175.626 8.06914 176.8 8.31631 177.806 8.81065C178.813 9.28733 179.598 9.95821 180.163 10.8233C180.746 11.6884 181.037 12.6947 181.037 13.8423C181.037 14.9722 180.746 15.9697 180.163 16.8348C179.598 17.6999 178.813 18.3796 177.806 18.8739C176.8 19.3506 175.626 19.5889 174.284 19.5889H165.678V17.4439ZM170.074 18.6356H173.146L181.435 27.9309H178.336L170.074 18.6356Z" fill="#FE4C00"/>
<path d="M159.994 19.2711C159.976 20.5246 159.729 21.6987 159.253 22.7933C158.794 23.8879 158.131 24.8501 157.266 25.6799C156.419 26.492 155.386 27.1276 154.168 27.5866C152.967 28.0456 151.617 28.2751 150.116 28.2751C148.527 28.2751 147.062 28.0368 145.72 27.5601C144.396 27.0658 143.24 26.3684 142.251 25.468C141.28 24.5676 140.53 23.4907 140 22.2372C139.47 20.966 139.205 19.5536 139.205 18C139.205 16.4464 139.47 15.0428 140 13.7893C140.547 12.5182 141.315 11.4324 142.304 10.532C143.293 9.6316 144.458 8.94306 145.8 8.46638C147.141 7.97204 148.624 7.72488 150.249 7.72488C152.191 7.72488 153.903 8.05149 155.386 8.70472C156.887 9.35795 158.096 10.2583 159.014 11.4059C159.932 12.5358 160.48 13.8335 160.656 15.2988H158.114C157.92 14.2219 157.469 13.2862 156.763 12.4917C156.057 11.6796 155.148 11.0528 154.036 10.6114C152.941 10.1701 151.661 9.94939 150.196 9.94939C148.483 9.94939 146.991 10.276 145.72 10.9292C144.467 11.5825 143.487 12.5093 142.781 13.7099C142.092 14.9104 141.748 16.3404 141.748 18C141.748 19.6419 142.101 21.0719 142.807 22.2901C143.513 23.5083 144.511 24.444 145.8 25.0973C147.088 25.7505 148.598 26.0771 150.328 26.0771C152.023 26.0771 153.497 25.7681 154.751 25.1502C156.022 24.5323 157.01 23.6849 157.717 22.6079C158.423 21.531 158.794 20.2951 158.829 18.9004L159.994 19.2711ZM151.308 20.3569V18.3708H160.894V27.9309H158.961L158.723 19.5095L159.411 20.3569H151.308Z" fill="#FE4C00"/>
</svg>
