<svg version="1.1" id="Layer_1" xmlns="http://www.w3.org/2000/svg" xmlns:xlink="http://www.w3.org/1999/xlink" x="0px" y="0px"
	 width="100%" viewBox="0 0 108 108" enable-background="new 0 0 108 108" xml:space="preserve">
<path fill="#030202" opacity="1.000000" stroke="none" 
	d="
M55.000000,109.000000 
	C37.038116,109.000000 19.076235,109.000000 1.057176,109.000000 
	C1.057176,73.114426 1.057176,37.228745 1.057176,1.000000 
	C15.685781,1.000000 30.374231,1.000000 45.886818,1.236180 
	C36.196716,12.089099 25.690374,22.713663 15.166056,33.320396 
	C4.434278,44.136211 4.095264,58.264946 14.433386,69.362823 
	C17.952147,73.140175 21.644020,76.762512 25.362394,80.346100 
	C29.946253,84.763802 34.223110,85.063652 38.068268,81.412224 
	C41.822613,77.847038 41.529484,72.683975 37.186138,68.178093 
	C34.412930,65.301109 31.473665,62.584946 28.642311,59.763103 
	C21.989529,53.132660 22.059383,50.339722 28.820608,43.623947 
	C37.921463,34.584255 47.009983,25.531467 56.029350,16.410685 
	C60.580685,11.808177 60.600647,7.899822 56.467751,2.893217 
	C56.094746,2.441351 56.145851,1.639382 56.000000,1.000000 
	C73.630478,1.000000 91.260948,1.000000 108.945709,1.000000 
	C108.945709,36.889996 108.945709,72.780090 108.945709,109.000000 
	C91.647163,109.000000 74.292244,109.000000 56.531727,108.661072 
	C59.958515,103.874886 63.790890,99.427635 66.055611,96.799561 
	C62.332420,93.022400 58.192245,88.822220 54.052074,84.622040 
	C55.400768,84.868774 56.749458,85.115517 58.098152,85.362251 
	C53.746540,89.292763 49.394928,93.223274 45.624420,96.628914 
	C47.820885,99.527153 51.410442,104.263580 55.000000,109.000000 
M52.528130,59.342800 
	C56.633904,60.964317 59.948822,59.617531 62.875435,56.647663 
	C66.026848,53.449669 69.179626,50.250805 72.410660,47.134064 
	C76.632545,43.061531 81.552032,42.820744 85.169785,46.403336 
	C88.609528,49.809650 88.200859,54.115788 83.864891,58.614170 
	C80.519447,62.084923 76.955139,65.347488 73.664078,68.867126 
	C70.014870,72.769791 69.924431,77.478653 73.175934,80.896385 
	C76.811630,84.717949 81.173653,84.834923 85.508247,80.852592 
	C89.422073,77.256828 93.125740,73.423691 96.805984,69.583954 
	C106.894547,59.058170 107.056183,44.174271 97.260162,34.291985 
	C87.700806,24.648445 72.051422,24.413473 61.676636,33.888988 
	C57.875038,37.361069 54.255836,41.043301 50.690689,44.761292 
	C45.830143,49.830219 46.245617,54.385113 52.528130,59.342800 
z"/>
<path fill="#FAFAFA" opacity="1.000000" stroke="none" 
	d="
M55.545891,1.000000 
	C56.145851,1.639382 56.094746,2.441351 56.467751,2.893217 
	C60.600647,7.899822 60.580685,11.808177 56.029350,16.410685 
	C47.009983,25.531467 37.921463,34.584255 28.820608,43.623947 
	C22.059383,50.339722 21.989529,53.132660 28.642311,59.763103 
	C31.473665,62.584946 34.412930,65.301109 37.186138,68.178093 
	C41.529484,72.683975 41.822613,77.847038 38.068268,81.412224 
	C34.223110,85.063652 29.946253,84.763802 25.362394,80.346100 
	C21.644020,76.762512 17.952147,73.140175 14.433386,69.362823 
	C4.095264,58.264946 4.434278,44.136211 15.166056,33.320396 
	C25.690374,22.713663 36.196716,12.089099 46.355476,1.236180 
	C49.030594,1.000000 52.061188,1.000000 55.545891,1.000000 
z"/>
<path fill="#E54F14" opacity="1.000000" stroke="none" 
	d="
M55.250000,109.000000 
	C51.410442,104.263580 47.820885,99.527153 45.624420,96.628914 
	C49.394928,93.223274 53.746540,89.292763 58.098152,85.362251 
	C56.749458,85.115517 55.400768,84.868774 54.052074,84.622040 
	C58.192245,88.822220 62.332420,93.022400 66.055611,96.799561 
	C63.790890,99.427635 59.958515,103.874886 56.063068,108.661072 
	C56.000000,109.000000 55.500000,109.000000 55.250000,109.000000 
z"/>
<path fill="#FAFAFA" opacity="1.000000" stroke="none" 
	d="
M52.169838,59.183678 
	C46.245617,54.385113 45.830143,49.830219 50.690689,44.761292 
	C54.255836,41.043301 57.875038,37.361069 61.676636,33.888988 
	C72.051422,24.413473 87.700806,24.648445 97.260162,34.291985 
	C107.056183,44.174271 106.894547,59.058170 96.805984,69.583954 
	C93.125740,73.423691 89.422073,77.256828 85.508247,80.852592 
	C81.173653,84.834923 76.811630,84.717949 73.175934,80.896385 
	C69.924431,77.478653 70.014870,72.769791 73.664078,68.867126 
	C76.955139,65.347488 80.519447,62.084923 83.864891,58.614170 
	C88.200859,54.115788 88.609528,49.809650 85.169785,46.403336 
	C81.552032,42.820744 76.632545,43.061531 72.410660,47.134064 
	C69.179626,50.250805 66.026848,53.449669 62.875435,56.647663 
	C59.948822,59.617531 56.633904,60.964317 52.169838,59.183678 
z"/>
</svg>